<svg xmlns="http://www.w3.org/2000/svg" width="64" height="64" viewBox="0 0 64 64">
  <!-- Sumpf -->
  <rect width="64" height="64" fill="#2A3A18"/>
  <!-- Dunkles Moorwasser -->
  <ellipse cx="20" cy="28" rx="16" ry="10" fill="#1A2A10" opacity="0.9"/>
  <ellipse cx="46" cy="44" rx="14" ry="9"  fill="#1A2A10" opacity="0.9"/>
  <!-- Wasserglanz -->
  <ellipse cx="16" cy="25" rx="6" ry="3" fill="#2E4A20" opacity="0.6"/>
  <ellipse cx="44" cy="42" rx="5" ry="2" fill="#2E4A20" opacity="0.6"/>
  <!-- Seerosen -->
  <circle cx="24" cy="30" r="4" fill="#3A5A20"/>
  <circle cx="24" cy="30" r="2" fill="#4A7A28"/>
  <circle cx="40" cy="46" r="4" fill="#3A5A20"/>
  <circle cx="40" cy="46" r="2" fill="#4A7A28"/>
  <!-- Seerose Blüte -->
  <circle cx="24" cy="30" r="1" fill="#FFAACC"/>
  <circle cx="40" cy="46" r="1" fill="#FFAACC"/>
  <!-- Schilf -->
  <line x1="10" y1="50" x2="10" y2="30" stroke="#5A7A30" stroke-width="2"/>
  <ellipse cx="10" cy="30" rx="2" ry="4" fill="#4A6A28"/>
  <line x1="14" y1="52" x2="14" y2="34" stroke="#5A7A30" stroke-width="2"/>
  <ellipse cx="14" cy="34" rx="2" ry="4" fill="#4A6A28"/>
  <line x1="54" y1="20" x2="54" y2="4"  stroke="#5A7A30" stroke-width="2"/>
  <ellipse cx="54" cy="4" rx="2" ry="4" fill="#4A6A28"/>
  <!-- Moorblasen -->
  <circle cx="30" cy="36" r="2" fill="#2E4A20" stroke="#4A7A28" stroke-width="1"/>
  <circle cx="50" cy="22" r="1.5" fill="#2E4A20" stroke="#4A7A28" stroke-width="1"/>
</svg>
